<?xml version="1.0" standalone="no"?>
<!DOCTYPE svg PUBLIC "-//W3C//DTD SVG 20010904//EN"
 "http://www.w3.org/TR/2001/REC-SVG-20010904/DTD/svg10.dtd">
<svg version="1.0" xmlns="http://www.w3.org/2000/svg"
 width="512.000000pt" height="512.000000pt" viewBox="0 0 512.000000 512.000000"
 preserveAspectRatio="xMidYMid meet">

<g transform="translate(0.000000,512.000000) scale(0.100000,-0.100000)"
fill="#000000" stroke="none">
<path d="M2370 5110 c-219 -17 -488 -75 -690 -150 -121 -44 -351 -158 -464
-229 -290 -182 -570 -451 -756 -725 -27 -41 -50 -79 -50 -83 0 -4 238 -246
530 -538 441 -441 530 -526 536 -510 70 199 137 314 257 441 146 155 285 244
477 308 136 45 242 60 388 53 224 -9 392 -78 635 -258 117 -87 100 -90 478 95
884 432 845 412 863 449 9 19 16 59 16 89 0 76 -31 120 -220 309 -222 223
-395 349 -645 474 -282 140 -544 222 -835 259 -149 19 -387 27 -520 16z"/>
<path d="M2528 3031 c-49 -10 -84 -34 -105 -74 -16 -29 -18 -70 -18 -477 0
-430 1 -446 20 -480 12 -19 36 -43 55 -55 34 -19 53 -20 483 -23 246 -2 447
-6 447 -9 0 -15 -90 -124 -156 -189 -84 -83 -208 -169 -319 -220 l-78 -36 531
-531 531 -531 87 59 c137 93 240 179 374 314 368 370 612 846 700 1363 22 134
39 400 40 622 0 163 -14 208 -78 248 l-37 23 -1220 1 c-671 1 -1236 -1 -1257
-5z"/>
</g>
</svg>
